<svg width="371" height="92" viewBox="0 0 371 92" fill="none" xmlns="http://www.w3.org/2000/svg">
<path d="M3.81 9.06L1.68868 6.93868L1.67285 6.95451L1.65726 6.97057L3.81 9.06ZM30.09 46.23V43.23H23.0251L27.9314 48.3134L30.09 46.23ZM47.55 64.32L45.3914 66.4034L45.4099 66.4225L45.4287 66.4413L47.55 64.32ZM47.01 69L45.2359 66.5808L45.2229 66.5903L45.21 66.6L47.01 69ZM41.34 68.01L43.5699 66.0031L43.5426 65.9728L43.5146 65.9433L41.34 68.01ZM20.64 46.23L22.8145 44.1633L21.9275 43.23H20.64V46.23ZM8.49 46.23V43.23H5.49V46.23H8.49ZM7.41 68.91L5.28868 66.7887L5.28868 66.7887L7.41 68.91ZM1.83 68.91L-0.381462 70.9372L-0.337414 70.9852L-0.29132 71.0313L1.83 68.91ZM42.15 36.96L43.9844 39.3339L43.9918 39.3281L42.15 36.96ZM42.15 15.54L40.2447 17.8573L40.2602 17.87L40.2759 17.8826L42.15 15.54ZM9.75 13.56L7.55684 11.513L7.55683 11.513L9.75 13.56ZM8.49 40.02H5.49V43.02H8.49V40.02ZM3.84 17.25C3.84 14.4415 4.63318 12.5193 5.96274 11.1494L1.65726 6.97057C-0.973176 9.68072 -2.16 13.2184 -2.16 17.25H3.84ZM5.93132 11.1813C7.2417 9.87094 9.31338 9 12.63 9V3C8.26662 3 4.4583 4.16905 1.68868 6.93868L5.93132 11.1813ZM12.63 9H29.46V3H12.63V9ZM29.46 9C37.2789 9 42.5848 10.6356 45.9028 13.3924C49.1143 16.0608 50.94 20.1837 50.94 26.34H56.94C56.94 18.9363 54.6857 12.8892 49.7372 8.77755C44.8952 4.75438 37.9611 3 29.46 3V9ZM50.94 26.34C50.94 32.2463 49.1792 36.2551 46.0591 38.9025L49.9409 43.4775C54.7408 39.4049 56.94 33.5137 56.94 26.34H50.94ZM46.0591 38.9025C42.8662 41.6116 37.7237 43.23 30.09 43.23V49.23C38.4163 49.23 45.2139 47.4884 49.9409 43.4775L46.0591 38.9025ZM27.9314 48.3134L45.3914 66.4034L49.7086 62.2366L32.2486 44.1466L27.9314 48.3134ZM45.4287 66.4413C45.4253 66.4379 45.4134 66.4252 45.3989 66.4031C45.3841 66.3807 45.3722 66.3571 45.3638 66.3357C45.3555 66.3147 45.3541 66.3043 45.355 66.3095C45.3561 66.3153 45.36 66.3408 45.36 66.39H51.36C51.36 64.8417 50.8328 63.3602 49.6713 62.1987L45.4287 66.4413ZM45.36 66.39C45.36 66.4508 45.3538 66.4802 45.3525 66.486C45.3514 66.4907 45.3526 66.4844 45.3578 66.4742C45.3629 66.4644 45.3639 66.4663 45.3511 66.4808C45.3374 66.4963 45.3034 66.5313 45.2359 66.5808L48.7841 71.4192C50.4244 70.2163 51.36 68.4626 51.36 66.39H45.36ZM45.21 66.6C44.9261 66.8129 44.7941 66.81 44.76 66.81V72.81C46.2859 72.81 47.6539 72.2671 48.81 71.4L45.21 66.6ZM44.76 66.81C44.6759 66.81 44.2867 66.7996 43.5699 66.0031L39.1101 70.0169C40.5533 71.6204 42.4441 72.81 44.76 72.81V66.81ZM43.5146 65.9433L22.8145 44.1633L18.4655 48.2967L39.1655 70.0767L43.5146 65.9433ZM20.64 43.23H8.49V49.23H20.64V43.23ZM5.49 46.23V66.03H11.49V46.23H5.49ZM5.49 66.03C5.49 66.5872 5.34647 66.7309 5.28868 66.7887L9.53132 71.0313C10.9135 69.6491 11.49 67.8728 11.49 66.03H5.49ZM5.28868 66.7887C5.28597 66.7914 5.28392 66.7932 5.2787 66.7964C5.27298 66.8 5.25397 66.8111 5.21427 66.8252C5.13246 66.8542 4.94963 66.9 4.62 66.9V72.9C6.37785 72.9 8.16033 72.4023 9.53132 71.0313L5.28868 66.7887ZM4.62 66.9C4.29038 66.9 4.10754 66.8542 4.02573 66.8252C3.98603 66.8111 3.96702 66.8 3.9613 66.7964C3.95608 66.7932 3.95403 66.7914 3.95132 66.7887L-0.29132 71.0313C1.07967 72.4023 2.86215 72.9 4.62 72.9V66.9ZM4.04146 66.8828C3.99834 66.8358 3.84 66.6593 3.84 66.03H-2.16C-2.16 67.8007 -1.65834 69.5442 -0.381462 70.9372L4.04146 66.8828ZM3.84 66.03V17.25H-2.16V66.03H3.84ZM29.91 43.02C35.6958 43.02 40.5731 41.9699 43.9843 39.3339L40.3157 34.5861C38.447 36.0301 35.1642 37.02 29.91 37.02V43.02ZM43.9918 39.3281C47.711 36.4354 49.2 31.8058 49.2 26.34H43.2C43.2 30.8341 41.989 33.2846 40.3082 34.5919L43.9918 39.3281ZM49.2 26.34C49.2 20.821 47.7159 16.1509 44.0241 13.1974L40.2759 17.8826C41.9841 19.2491 43.2 21.779 43.2 26.34H49.2ZM44.0553 13.2227C40.5894 10.373 35.6956 9.21 29.91 9.21V15.21C35.0444 15.21 38.3106 16.267 40.2447 17.8573L44.0553 13.2227ZM29.91 9.21H13.08V15.21H29.91V9.21ZM13.08 9.21C10.9796 9.21 9.03583 9.9284 7.55684 11.513L11.9432 15.607C12.1442 15.3916 12.4204 15.21 13.08 15.21V9.21ZM7.55683 11.513C6.07026 13.1058 5.49 15.1414 5.49 17.25H11.49C11.49 16.2386 11.7497 15.8142 11.9432 15.6069L7.55683 11.513ZM5.49 17.25V40.02H11.49V17.25H5.49ZM8.49 43.02H29.91V37.02H8.49V43.02ZM66.4866 63.87L68.5455 61.6881L68.5455 61.6881L66.4866 63.87ZM66.5766 30.12L68.6203 32.3162L68.6284 32.3087L68.6364 32.301L66.5766 30.12ZM96.6366 26.25L95.4827 29.0192L95.5025 29.0275L95.5224 29.0354L96.6366 26.25ZM105.007 32.46L102.587 34.2341L102.61 34.2645L102.633 34.2943L105.007 32.46ZM105.907 47.4L103.831 45.234L103.808 45.2561L103.785 45.2787L105.907 47.4ZM66.8466 49.47V46.47H63.8466V49.47H66.8466ZM71.5266 60.36L69.5887 62.6502L69.6017 62.6611L69.6148 62.6719L71.5266 60.36ZM93.3966 63.15L94.2393 66.0292L94.2714 66.0198L94.3033 66.0097L93.3966 63.15ZM100.327 59.46L102.168 61.8281L102.214 61.7923L102.259 61.7547L100.327 59.46ZM104.647 58.74L102.525 60.8613L102.607 60.9428L102.694 61.0178L104.647 58.74ZM104.827 62.97L106.894 65.1437L106.921 65.1178L106.948 65.0913L104.827 62.97ZM96.1866 68.19L97.1661 71.0256L97.1661 71.0256L96.1866 68.19ZM100.597 43.53L102.438 45.8981L102.516 45.8376L102.59 45.7722L100.597 43.53ZM99.2466 35.16L96.9354 37.0727L96.9354 37.0727L99.2466 35.16ZM93.1266 31.11L92.0804 33.9217L92.0908 33.9256L92.1013 33.9294L93.1266 31.11ZM71.6166 33.63L73.5504 35.9236L73.5544 35.9202L71.6166 33.63ZM67.0266 44.16H64.0266V47.16H67.0266V44.16ZM84.5766 66.9C77.282 66.9 72.0846 65.0278 68.5455 61.6881L64.4276 66.0519C69.4085 70.7522 76.2711 72.9 84.5766 72.9V66.9ZM68.5455 61.6881C65.0341 58.3745 63.0966 53.5524 63.0966 46.77H57.0966C57.0966 54.7476 59.419 61.3255 64.4276 66.0519L68.5455 61.6881ZM63.0966 46.77C63.0966 40.3429 65.0306 35.6566 68.6203 32.3162L64.5329 27.9238C59.4825 32.6234 57.0966 39.0371 57.0966 46.77H63.0966ZM68.6364 32.301C72.2638 28.8752 77.363 27 84.3066 27V21C76.2502 21 69.5293 23.2048 64.5167 27.939L68.6364 32.301ZM84.3066 27C88.6023 27 92.3093 27.697 95.4827 29.0192L97.7904 23.4808C93.7639 21.803 89.2508 21 84.3066 21V27ZM95.5224 29.0354C98.6853 30.3006 100.989 32.0544 102.587 34.2341L107.426 30.6859C105.064 27.4656 101.788 25.0794 97.7507 23.4646L95.5224 29.0354ZM102.633 34.2943C104.256 36.395 105.067 38.7759 105.067 41.55H111.067C111.067 37.4841 109.837 33.805 107.38 30.6257L102.633 34.2943ZM105.067 41.55C105.067 43.4805 104.534 44.5605 103.831 45.234L107.982 49.566C110.159 47.4795 111.067 44.6595 111.067 41.55H105.067ZM103.785 45.2787C103.105 45.9585 102.029 46.47 100.147 46.47V52.47C103.184 52.47 105.948 51.6015 108.028 49.5213L103.785 45.2787ZM100.147 46.47H66.8466V52.47H100.147V46.47ZM63.8466 49.47C63.8466 54.8435 65.7025 59.3618 69.5887 62.6502L73.4644 58.0698C71.1106 56.0782 69.8466 53.3365 69.8466 49.47H63.8466ZM69.6148 62.6719C73.445 65.8392 78.5609 67.23 84.5766 67.23V61.23C79.4322 61.23 75.8482 60.0408 73.4384 58.0481L69.6148 62.6719ZM84.5766 67.23C88.1929 67.23 91.4316 66.851 94.2393 66.0292L92.5539 60.2708C90.4415 60.889 87.8002 61.23 84.5766 61.23V67.23ZM94.3033 66.0097C97.1216 65.1161 99.7453 63.7127 102.168 61.8281L98.4847 57.0919C96.5879 58.5673 94.5915 59.6239 92.4898 60.2903L94.3033 66.0097ZM102.259 61.7547C102.724 61.3635 103.053 61.1502 103.255 61.0459C103.474 60.9329 103.403 61.02 103.117 61.02V55.02C101.245 55.02 99.5927 56.1559 98.3942 57.1653L102.259 61.7547ZM103.117 61.02C102.926 61.02 102.753 60.974 102.627 60.9145C102.512 60.8603 102.482 60.8177 102.525 60.8613L106.768 56.6187C105.878 55.7286 104.645 55.02 103.117 55.02V61.02ZM102.694 61.0178C102.804 61.1116 102.875 61.186 102.92 61.238C102.964 61.2897 102.977 61.3139 102.974 61.3083C102.97 61.3014 102.952 61.2664 102.935 61.2048C102.918 61.1417 102.907 61.0679 102.907 60.99H108.907C108.907 59.0152 107.816 57.5053 106.599 56.4622L102.694 61.0178ZM102.907 60.99C102.907 60.6765 103.002 60.4996 103.003 60.4984C103.003 60.4974 102.986 60.5289 102.937 60.5923C102.887 60.6554 102.813 60.7411 102.705 60.8487L106.948 65.0913C107.863 64.1766 108.907 62.7871 108.907 60.99H102.907ZM102.759 60.7963C100.619 62.8319 98.1129 64.3506 95.207 65.3544L97.1661 71.0256C100.86 69.7494 104.114 67.7881 106.894 65.1437L102.759 60.7963ZM95.207 65.3544C92.2945 66.3606 88.7695 66.9 84.5766 66.9V72.9C89.2637 72.9 93.4787 72.2994 97.1661 71.0256L95.207 65.3544ZM98.1666 47.16C99.5527 47.16 101.144 46.9046 102.438 45.8981L98.7547 41.1619C98.8709 41.0716 98.9266 41.0738 98.8312 41.0985C98.7312 41.1244 98.5219 41.16 98.1666 41.16V47.16ZM102.59 45.7722C104.088 44.44 104.407 42.5207 104.407 41.01H98.4066C98.4066 41.1994 98.3958 41.3437 98.3819 41.4489C98.3679 41.5544 98.3524 41.6083 98.348 41.622C98.3409 41.644 98.3926 41.4753 98.6035 41.2878L102.59 45.7722ZM104.407 41.01C104.407 38.1179 103.421 35.4987 101.558 33.2473L96.9354 37.0727C97.9522 38.3013 98.4066 39.5821 98.4066 41.01H104.407ZM101.558 33.2473C99.7036 31.0069 97.1723 29.389 94.1518 28.2906L92.1013 33.9294C94.3608 34.751 95.9095 35.8331 96.9354 37.0727L101.558 33.2473ZM94.1728 28.2983C91.1988 27.1918 87.8946 26.67 84.3066 26.67V32.67C87.3185 32.67 89.8943 33.1082 92.0804 33.9217L94.1728 28.2983ZM84.3066 26.67C78.4779 26.67 73.488 28.1166 69.6787 31.3398L73.5544 35.9202C75.9851 33.8634 79.4552 32.67 84.3066 32.67V26.67ZM69.6828 31.3364C65.8676 34.5532 64.0266 38.9447 64.0266 44.16H70.0266C70.0266 40.4953 71.2455 37.8668 73.5504 35.9236L69.6828 31.3364ZM67.0266 47.16H98.1666V41.16H67.0266V47.16ZM126.529 89.52L125.465 92.325L125.465 92.325L126.529 89.52ZM118.879 84.12L116.422 85.8404L116.428 85.849L116.434 85.8576L118.879 84.12ZM119.689 79.8L121.489 82.2L121.551 82.1539L121.61 82.1047L119.689 79.8ZM124.189 80.79L126.479 78.8522L126.43 78.7939L126.378 78.7382L124.189 80.79ZM129.949 84.48L130.995 81.6683L130.977 81.6614L130.958 81.6548L129.949 84.48ZM150.919 81.06L148.778 78.9586L148.768 78.9688L148.758 78.9791L150.919 81.06ZM155.689 61.8H158.689V52.858L153.296 59.9907L155.689 61.8ZM148.579 67.47L149.782 70.2185L149.806 70.208L149.829 70.1972L148.579 67.47ZM121.849 63.15L119.697 65.2404L119.713 65.2559L119.728 65.2713L121.849 63.15ZM116.719 25.08L118.737 27.2998L118.79 27.2518L118.841 27.2013L116.719 25.08ZM121.489 25.08L119.269 27.098L119.365 27.2037L119.471 27.2998L121.489 25.08ZM126.799 59.19L124.557 61.1831L124.576 61.205L124.596 61.2266L126.799 59.19ZM151.009 59.37L148.803 57.337L148.803 57.337L151.009 59.37ZM156.139 25.17L153.849 23.2322L153.842 23.2408L153.835 23.2494L156.139 25.17ZM161.359 25.17L158.981 26.9991L159.06 27.1017L159.148 27.1972L161.359 25.17ZM159.289 79.98L156.679 78.501L156.665 78.5266L156.651 78.5525L159.289 79.98ZM150.919 88.44L149.473 85.8114L149.457 85.8205L149.44 85.8299L150.919 88.44ZM138.409 88.5C134.264 88.5 130.675 87.8838 127.593 86.715L125.465 92.325C129.344 93.7962 133.674 94.5 138.409 94.5V88.5ZM127.593 86.715C124.489 85.5375 122.503 84.041 121.325 82.3824L116.434 85.8576C118.495 88.759 121.61 90.8625 125.465 92.325L127.593 86.715ZM121.337 82.3996C121.261 82.2911 121.24 82.234 121.238 82.2289C121.237 82.2266 121.241 82.2349 121.244 82.2529C121.247 82.271 121.249 82.294 121.249 82.32H115.249C115.249 83.6603 115.728 84.849 116.422 85.8404L121.337 82.3996ZM121.249 82.32C121.249 82.3329 121.247 82.3607 121.238 82.3955C121.229 82.4302 121.217 82.4523 121.214 82.4584C121.208 82.4685 121.26 82.3716 121.489 82.2L117.889 77.4C116.383 78.5295 115.249 80.1814 115.249 82.32H121.249ZM121.61 82.1047C121.405 82.275 121.228 82.3362 121.167 82.3531C121.114 82.3679 121.148 82.35 121.309 82.35V76.35C120.246 76.35 118.891 76.5601 117.769 77.4953L121.61 82.1047ZM121.309 82.35C121.329 82.35 121.367 82.3504 121.453 82.3933C121.552 82.4432 121.74 82.5642 122.001 82.8418L126.378 78.7382C125.084 77.3585 123.382 76.35 121.309 76.35V82.35ZM121.899 82.7278C123.65 84.7976 126.072 86.281 128.94 87.3052L130.958 81.6548C128.786 80.879 127.368 79.9024 126.479 78.8522L121.899 82.7278ZM128.903 87.2917C131.833 88.3819 134.919 88.92 138.139 88.92V82.92C135.6 82.92 133.225 82.4981 130.995 81.6683L128.903 87.2917ZM138.139 88.92C144.178 88.92 149.283 87.0839 153.08 83.1409L148.758 78.9791C146.315 81.5161 142.9 82.92 138.139 82.92V88.92ZM153.06 83.1614C156.905 79.2437 158.689 74.0456 158.689 67.92H152.689C152.689 72.8344 151.293 76.3963 148.778 78.9586L153.06 83.1614ZM158.689 67.92V61.8H152.689V67.92H158.689ZM153.296 59.9907C151.744 62.0438 149.771 63.6237 147.329 64.7428L149.829 70.1972C153.147 68.6763 155.915 66.4762 158.082 63.6093L153.296 59.9907ZM147.377 64.7215C144.915 65.7987 142.15 66.36 139.039 66.36V72.36C142.889 72.36 146.484 71.6613 149.782 70.2185L147.377 64.7215ZM139.039 66.36C132.305 66.36 127.415 64.473 123.971 61.0287L119.728 65.2713C124.564 70.107 131.134 72.36 139.039 72.36V66.36ZM124.001 61.0596C120.602 57.5602 118.729 52.5703 118.729 45.69H112.729C112.729 53.6897 114.937 60.3398 119.697 65.2404L124.001 61.0596ZM118.729 45.69V27.33H112.729V45.69H118.729ZM118.729 27.33C118.729 27.3092 118.73 27.2945 118.731 27.2852C118.732 27.2759 118.733 27.2716 118.733 27.2715C118.733 27.2714 118.732 27.2745 118.73 27.2803C118.729 27.286 118.726 27.293 118.723 27.3007C118.719 27.3084 118.716 27.3154 118.712 27.3214C118.709 27.3273 118.706 27.331 118.705 27.3322C118.703 27.3352 118.711 27.3238 118.737 27.2998L114.701 22.8602C113.409 24.0346 112.729 25.5935 112.729 27.33H118.729ZM118.841 27.2013C118.907 27.1348 118.943 27.12 118.954 27.1158C118.966 27.1109 119.019 27.09 119.149 27.09V21.09C117.419 21.09 115.838 21.7184 114.598 22.9587L118.841 27.2013ZM119.149 27.09C119.217 27.09 119.258 27.0958 119.276 27.0993C119.294 27.1027 119.295 27.1046 119.285 27.1004C119.275 27.0961 119.264 27.09 119.257 27.0845C119.25 27.0793 119.254 27.0812 119.269 27.098L123.709 23.062C122.494 21.7249 120.882 21.09 119.149 21.09V27.09ZM119.471 27.2998C119.498 27.3238 119.505 27.3352 119.503 27.3322C119.502 27.331 119.5 27.3273 119.496 27.3214C119.493 27.3154 119.489 27.3084 119.486 27.3007C119.482 27.293 119.48 27.286 119.478 27.2803C119.476 27.2745 119.476 27.2714 119.476 27.2715C119.476 27.2716 119.476 27.2759 119.477 27.2852C119.478 27.2945 119.479 27.3092 119.479 27.33H125.479C125.479 25.5935 124.799 24.0346 123.507 22.8602L119.471 27.2998ZM119.479 27.33V45.69H125.479V27.33H119.479ZM119.479 45.69C119.479 51.9392 121.047 57.2346 124.557 61.1831L129.041 57.1969C126.791 54.6654 125.479 50.9608 125.479 45.69H119.479ZM124.596 61.2266C128.219 65.1451 133.169 66.96 139.039 66.96V60.96C134.47 60.96 131.259 59.5949 129.002 57.1534L124.596 61.2266ZM139.039 66.96C144.822 66.96 149.696 65.222 153.215 61.403L148.803 57.337C146.683 59.638 143.577 60.96 139.039 60.96V66.96ZM153.215 61.403C156.704 57.6174 158.239 52.4417 158.239 46.32H152.239C152.239 51.4783 150.954 55.0026 148.803 57.337L153.215 61.403ZM158.239 46.32V28.23H152.239V46.32H158.239ZM158.239 28.23C158.239 27.7905 158.29 27.4997 158.342 27.3215C158.392 27.1522 158.439 27.0958 158.444 27.0906L153.835 23.2494C152.633 24.6919 152.239 26.491 152.239 28.23H158.239ZM158.429 27.1078C158.456 27.0766 158.473 27.0629 158.479 27.0581C158.485 27.0536 158.491 27.0499 158.502 27.0452C158.519 27.0376 158.614 27 158.839 27V21C156.932 21 155.149 21.6955 153.849 23.2322L158.429 27.1078ZM158.839 27C158.929 27 158.982 27.0081 159.007 27.0131C159.03 27.0178 159.031 27.0203 159.016 27.0135C159.001 27.0064 158.985 26.9963 158.972 26.9865C158.961 26.9771 158.965 26.9777 158.981 26.9991L163.737 23.3409C162.508 21.7436 160.746 21 158.839 21V27ZM159.148 27.1972C159.159 27.2098 159.202 27.2578 159.247 27.3985C159.297 27.5504 159.349 27.8139 159.349 28.23H165.349C165.349 26.4271 164.894 24.586 163.571 23.1428L159.148 27.1972ZM159.349 28.23V67.47H165.349V28.23H159.349ZM159.349 67.47C159.349 71.768 158.428 75.4142 156.679 78.501L161.899 81.459C164.23 77.3458 165.349 72.652 165.349 67.47H159.349ZM156.651 78.5525C154.941 81.7128 152.562 84.1127 149.473 85.8114L152.365 91.0686C156.476 88.8073 159.678 85.5672 161.928 81.4075L156.651 78.5525ZM149.44 85.8299C146.353 87.5791 142.707 88.5 138.409 88.5V94.5C143.591 94.5 148.285 93.3809 152.398 91.0501L149.44 85.8299ZM177.197 66.03L175.349 68.3934L175.36 68.4015L175.37 68.4095L177.197 66.03ZM177.467 44.61L175.674 42.2051L175.664 42.2125L175.654 42.2199L177.467 44.61ZM201.227 42.09L200.222 44.9166L200.232 44.9201L200.242 44.9235L201.227 42.09ZM207.617 45.96L205.416 47.9982L210.617 53.6156V45.96H207.617ZM204.197 32.37L202.308 34.7003L202.323 34.7126L202.338 34.7246L204.197 32.37ZM179.897 33.63L181.418 36.2158L181.473 36.1834L181.527 36.1487L179.897 33.63ZM175.577 33.81L173.677 36.1319L173.69 36.1423L173.703 36.1526L175.577 33.81ZM175.757 29.49L177.586 31.8679L177.593 31.863L177.599 31.8581L175.757 29.49ZM183.947 25.53L184.785 28.4106L184.802 28.4057L184.819 28.4006L183.947 25.53ZM208.967 28.32L207.054 30.6312L207.064 30.6392L207.074 30.6471L208.967 28.32ZM208.697 69L206.477 71.018L206.525 71.0708L206.576 71.1213L208.697 69ZM207.797 63.24H210.797V54.9881L205.498 61.3133L207.797 63.24ZM203.297 61.8L204.825 64.3817L204.844 64.3703L204.864 64.3586L203.297 61.8ZM203.567 48.39L202.066 50.9876L202.1 51.0072L202.135 51.0259L203.567 48.39ZM182.327 48.48L184.021 50.9559L184.043 50.9409L184.065 50.9255L182.327 48.48ZM182.237 62.07L180.512 64.5246L180.512 64.5246L182.237 62.07ZM191.057 66.9C185.586 66.9 181.69 65.6979 179.024 63.6505L175.37 68.4095C179.424 71.5221 184.768 72.9 191.057 72.9V66.9ZM179.045 63.6666C176.543 61.7106 175.247 59.0508 175.247 55.32H169.247C169.247 60.7092 171.251 65.1894 175.349 68.3934L179.045 63.6666ZM175.247 55.32C175.247 51.7252 176.574 49.0531 179.28 47.0001L175.654 42.2199C171.4 45.4469 169.247 49.9148 169.247 55.32H175.247ZM179.261 47.0149C182.121 44.882 186.217 43.65 191.867 43.65V37.65C185.397 37.65 179.894 39.058 175.674 42.2051L179.261 47.0149ZM191.867 43.65C195.142 43.65 197.911 44.0948 200.222 44.9166L202.232 39.2634C199.144 38.1652 195.672 37.65 191.867 37.65V43.65ZM200.242 44.9235C202.682 45.7723 204.34 46.8367 205.416 47.9982L209.818 43.9218C207.894 41.8433 205.292 40.3277 202.213 39.2565L200.242 44.9235ZM210.617 45.96V40.2H204.617V45.96H210.617ZM210.617 40.2C210.617 36.0443 209.189 32.4885 206.056 30.0154L202.338 34.7246C203.766 35.8515 204.617 37.5157 204.617 40.2H210.617ZM206.087 30.0397C203.119 27.6336 199.058 26.67 194.387 26.67V32.67C198.356 32.67 200.835 33.5064 202.308 34.7003L206.087 30.0397ZM194.387 26.67C188.317 26.67 182.902 28.1126 178.267 31.1113L181.527 36.1487C185.052 33.8674 189.297 32.67 194.387 32.67V26.67ZM178.376 31.0442C177.98 31.2774 177.689 31.41 177.493 31.4798C177.291 31.5521 177.266 31.53 177.377 31.53V37.53C178.846 37.53 180.252 36.902 181.418 36.2158L178.376 31.0442ZM177.377 31.53C177.429 31.53 177.476 31.5353 177.515 31.5433C177.555 31.5511 177.581 31.5603 177.591 31.5646C177.611 31.5724 177.563 31.557 177.451 31.4674L173.703 36.1526C174.683 36.9369 175.924 37.53 177.377 37.53V31.53ZM177.477 31.4881C177.46 31.4741 177.465 31.4756 177.481 31.4958C177.498 31.5169 177.52 31.5498 177.541 31.5931C177.562 31.6365 177.575 31.6773 177.582 31.7094C177.588 31.7405 177.587 31.7528 177.587 31.74H171.587C171.587 33.4955 172.333 35.0321 173.677 36.1319L177.477 31.4881ZM177.587 31.74C177.587 31.7331 177.588 31.7499 177.58 31.7832C177.572 31.8173 177.558 31.8536 177.541 31.8866C177.524 31.9188 177.511 31.9342 177.512 31.9329C177.514 31.9307 177.535 31.9075 177.586 31.8679L173.928 27.1121C172.489 28.219 171.587 29.8128 171.587 31.74H177.587ZM177.599 31.8581C179.394 30.4619 181.759 29.2908 184.785 28.4106L183.109 22.6494C179.535 23.6892 176.44 25.158 173.915 27.1219L177.599 31.8581ZM184.819 28.4006C187.899 27.4656 191.025 27 194.207 27V21C190.429 21 186.716 21.5544 183.076 22.6594L184.819 28.4006ZM194.207 27C200.15 27 204.295 28.3475 207.054 30.6312L210.88 26.0088C206.679 22.5325 200.985 21 194.207 21V27ZM207.074 30.6471C209.808 32.8713 211.277 36.0067 211.277 40.47H217.277C217.277 34.4933 215.207 29.5287 210.86 25.9929L207.074 30.6471ZM211.277 40.47V66.39H217.277V40.47H211.277ZM211.277 66.39C211.277 66.7537 211.234 66.9563 211.207 67.0434C211.184 67.1188 211.185 67.0719 211.263 66.9877C211.299 66.9486 211.339 66.9157 211.377 66.8911C211.414 66.867 211.437 66.8586 211.436 66.859C211.429 66.8615 211.314 66.9 211.037 66.9V72.9C212.644 72.9 214.383 72.4537 215.672 71.0573C216.919 69.7064 217.277 67.9655 217.277 66.39H211.277ZM211.037 66.9C210.953 66.9 210.896 66.8935 210.861 66.8874C210.826 66.8814 210.811 66.8755 210.809 66.875C210.808 66.8746 210.813 66.8765 210.82 66.8809C210.826 66.8852 210.826 66.8862 210.818 66.8787L206.576 71.1213C207.814 72.3597 209.395 72.9 211.037 72.9V66.9ZM210.917 66.982C210.891 66.9536 210.797 66.8684 210.797 66.48H204.797C204.797 68.1316 205.303 69.7264 206.477 71.018L210.917 66.982ZM210.797 66.48V63.24H204.797V66.48H210.797ZM205.498 61.3133C202.502 64.8889 197.882 66.9 191.057 66.9V72.9C199.113 72.9 205.652 70.4711 210.097 65.1667L205.498 61.3133ZM191.867 67.41C196.894 67.41 201.282 66.4787 204.825 64.3817L201.769 59.2183C199.432 60.6013 196.2 61.41 191.867 61.41V67.41ZM204.864 64.3586C208.464 62.1541 210.707 58.9781 210.707 54.87H204.707C204.707 56.4019 204.01 57.8459 201.731 59.2414L204.864 64.3586ZM210.707 54.87C210.707 52.9471 210.229 51.13 209.2 49.5198C208.182 47.9262 206.726 46.6922 205 45.7541L202.135 51.0259C203.169 51.5878 203.782 52.1838 204.144 52.7502C204.495 53.3 204.707 53.9729 204.707 54.87H210.707ZM205.068 45.7924C201.716 43.856 197.27 43.05 192.047 43.05V49.05C196.784 49.05 200.018 49.804 202.066 50.9876L205.068 45.7924ZM192.047 43.05C187.519 43.05 183.574 43.914 180.589 46.0345L184.065 50.9255C185.64 49.806 188.175 49.05 192.047 49.05V43.05ZM180.633 46.0041C177.456 48.1776 175.907 51.43 175.907 55.32H181.907C181.907 53.21 182.638 51.9024 184.021 50.9559L180.633 46.0041ZM175.907 55.32C175.907 59.1413 177.418 62.3499 180.512 64.5246L183.962 59.6154C182.617 58.6701 181.907 57.3787 181.907 55.32H175.907ZM180.512 64.5246C183.445 66.5856 187.365 67.41 191.867 67.41V61.41C187.969 61.41 185.469 60.6744 183.962 59.6154L180.512 64.5246ZM227.343 69L225.021 70.8997L225.115 71.0155L225.221 71.1213L227.343 69ZM227.343 24.99L229.572 26.9969L229.62 26.9444L229.664 26.8897L227.343 24.99ZM232.113 24.99L229.791 26.8897L229.885 27.0055L229.991 27.1113L232.113 24.99ZM233.013 32.91H230.013V41.8614L235.407 34.7178L233.013 32.91ZM241.023 26.25L239.743 23.5367L239.733 23.5414L239.723 23.5462L241.023 26.25ZM264.603 28.77L262.441 30.8501L262.451 30.8606L262.461 30.871L264.603 28.77ZM268.383 69L270.504 71.1213L270.554 71.0708L270.602 71.018L268.383 69ZM263.523 69L261.201 70.8997L261.245 70.9544L261.293 71.0069L263.523 69ZM237.873 34.35L235.792 32.189L235.782 32.1988L235.772 32.2086L237.873 34.35ZM232.203 68.91L229.983 66.892L229.93 66.9498L229.881 67.0103L232.203 68.91ZM229.773 66.9C229.555 66.9 229.459 66.8681 229.442 66.8618C229.433 66.8585 229.436 66.8589 229.446 66.865C229.456 66.8712 229.462 66.8771 229.464 66.8787L225.221 71.1213C226.495 72.3949 228.129 72.9 229.773 72.9V66.9ZM229.664 67.1003C229.664 67.0998 229.663 67.0984 229.661 67.0953C229.659 67.0922 229.655 67.0865 229.651 67.0776C229.642 67.0601 229.626 67.0256 229.609 66.968C229.573 66.8497 229.533 66.6379 229.533 66.3H223.533C223.533 67.8986 223.914 69.547 225.021 70.8997L229.664 67.1003ZM229.533 66.3V27.6H223.533V66.3H229.533ZM229.533 27.6C229.533 26.8968 229.7 26.8554 229.572 26.9969L225.113 22.9831C223.905 24.3246 223.533 26.0232 223.533 27.6H229.533ZM229.664 26.8897C229.642 26.9166 229.611 26.9476 229.572 26.9761C229.534 27.0043 229.502 27.0196 229.487 27.0258C229.459 27.0372 229.532 27 229.773 27V21C228.053 21 226.277 21.5545 225.021 23.0903L229.664 26.8897ZM229.773 27C229.961 27 230.001 27.0304 229.954 27.0104C229.93 27.0005 229.898 26.9831 229.863 26.9569C229.828 26.9307 229.804 26.9056 229.791 26.8897L234.434 23.0903C233.211 21.5955 231.497 21 229.773 21V27ZM229.991 27.1113C229.943 27.0628 229.937 27.0289 229.951 27.0705C229.971 27.126 230.013 27.2865 230.013 27.6H236.013C236.013 25.9459 235.568 24.2032 234.234 22.8687L229.991 27.1113ZM230.013 27.6V32.91H236.013V27.6H230.013ZM235.407 34.7178C237.358 32.1342 239.661 30.2333 242.322 28.9538L239.723 23.5462C236.144 25.2667 233.108 27.8058 230.618 31.1022L235.407 34.7178ZM242.302 28.9633C245.053 27.666 248.091 27 251.463 27V21C247.274 21 243.352 21.834 239.743 23.5367L242.302 28.9633ZM251.463 27C256.597 27 260.099 28.4165 262.441 30.8501L266.764 26.6899C262.986 22.7635 257.728 21 251.463 21V27ZM262.461 30.871C264.867 33.3232 266.283 37.0259 266.283 42.45H272.283C272.283 35.9941 270.578 30.5768 266.744 26.669L262.461 30.871ZM266.283 42.45V66.3H272.283V42.45H266.283ZM266.283 66.3C266.283 66.6105 266.241 66.7917 266.212 66.8813C266.185 66.9608 266.164 66.9803 266.163 66.982L270.602 71.018C271.832 69.6653 272.283 67.9718 272.283 66.3H266.283ZM266.261 66.8787C266.263 66.8771 266.269 66.8712 266.279 66.865C266.289 66.8589 266.292 66.8585 266.283 66.8618C266.266 66.8681 266.17 66.9 265.953 66.9V72.9C267.596 72.9 269.23 72.3949 270.504 71.1213L266.261 66.8787ZM265.953 66.9C265.683 66.9 265.577 66.8617 265.577 66.8618C265.579 66.8627 265.605 66.8725 265.642 66.8976C265.681 66.9232 265.719 66.9561 265.752 66.9931L261.293 71.0069C262.576 72.433 264.324 72.9 265.953 72.9V66.9ZM265.844 67.1003C265.844 67.0998 265.843 67.0984 265.841 67.0953C265.839 67.0922 265.835 67.0865 265.831 67.0776C265.822 67.0601 265.806 67.0256 265.789 66.968C265.753 66.8497 265.713 66.6379 265.713 66.3H259.713C259.713 67.8986 260.094 69.547 261.201 70.8997L265.844 67.1003ZM265.713 66.3V42.45H259.713V66.3H265.713ZM265.713 42.45C265.713 37.7695 264.612 33.7013 261.879 30.806C259.116 27.8781 255.181 26.67 250.653 26.67V32.67C254.164 32.67 256.259 33.5919 257.516 34.924C258.804 36.2887 259.713 38.6105 259.713 42.45H265.713ZM250.653 26.67C244.741 26.67 239.687 28.4382 235.792 32.189L239.954 36.511C242.538 34.0218 246.004 32.67 250.653 32.67V26.67ZM235.772 32.2086C231.925 35.9828 230.103 40.9428 230.103 46.77H236.103C236.103 42.2772 237.46 38.9572 239.974 36.4914L235.772 32.2086ZM230.103 46.77V66.3H236.103V46.77H230.103ZM230.103 66.3C230.103 66.5636 230.066 66.7134 230.041 66.7845C230.02 66.8471 230 66.8729 229.983 66.892L234.422 70.928C235.626 69.6045 236.103 67.9608 236.103 66.3H230.103ZM229.881 67.0103C229.903 66.9834 229.934 66.9524 229.973 66.9239C230.011 66.8957 230.043 66.8804 230.058 66.8742C230.086 66.8628 230.013 66.9 229.773 66.9V72.9C231.492 72.9 233.268 72.3455 234.524 70.8097L229.881 67.0103ZM288.752 67.56L287.554 70.3105L287.573 70.3187L287.592 70.3266L288.752 67.56ZM279.932 60.9L277.474 62.6204L277.511 62.6731L277.55 62.7242L279.932 60.9ZM279.752 57.57L277.352 55.77L277.331 55.7979L277.311 55.8263L279.752 57.57ZM281.102 56.49L280.049 53.681L279.965 53.7123L279.884 53.7486L281.102 56.49ZM283.622 56.67L281.702 58.9747L281.904 59.1437L282.134 59.2747L283.622 56.67ZM285.062 57.93L282.832 59.9369L282.855 59.9623L282.878 59.9871L285.062 57.93ZM308.192 62.52L306.721 59.9053L306.721 59.9053L308.192 62.52ZM309.902 54.69L307.56 56.5641L307.629 56.6504L307.704 56.7314L309.902 54.69ZM306.122 52.26L304.895 54.9975L304.951 55.0226L305.008 55.0454L306.122 52.26ZM297.482 49.02L298.456 46.1825L298.444 46.1784L297.482 49.02ZM288.302 45.24L286.876 47.8791L286.876 47.8791L288.302 45.24ZM283.352 41.19L280.886 42.8976L280.901 42.9204L280.918 42.9429L283.352 41.19ZM286.232 27.15L284.535 24.6765L284.523 24.6843L284.512 24.6923L286.232 27.15ZM308.732 25.98L307.582 28.7508L307.604 28.7601L307.627 28.769L308.732 25.98ZM315.932 31.11L318.358 29.3455L318.345 29.3276L318.332 29.31L315.932 31.11ZM315.212 35.16L313.741 32.5453L313.705 32.5659L313.669 32.5875L315.212 35.16ZM305.402 30.93L304.242 33.6966L304.28 33.7127L304.319 33.7277L305.402 30.93ZM291.002 31.29L289.445 28.7256L289.445 28.7256L291.002 31.29ZM289.472 38.94L287.113 40.7935L287.187 40.8872L287.268 40.9748L289.472 38.94ZM292.802 41.1L291.594 43.8459L291.659 43.8745L291.725 43.9L292.802 41.1ZM300.902 43.89L301.851 41.0439L301.837 41.0395L300.902 43.89ZM310.892 48.03L309.418 50.6429L309.458 50.6652L309.498 50.6862L310.892 48.03ZM316.022 52.26L313.511 53.9017L313.533 53.935L313.556 53.9676L316.022 52.26ZM312.872 66.66L311.186 64.1783L311.175 64.1858L311.164 64.1934L312.872 66.66ZM300.632 66.9C296.814 66.9 293.25 66.193 289.912 64.7934L287.592 70.3266C291.694 72.047 296.05 72.9 300.632 72.9V66.9ZM289.95 64.8095C286.629 63.3635 284.122 61.4371 282.314 59.0758L277.55 62.7242C280.062 66.0029 283.435 68.5165 287.554 70.3105L289.95 64.8095ZM282.39 59.1796C282.314 59.0711 282.293 59.014 282.291 59.0089C282.29 59.0066 282.293 59.0149 282.297 59.0329C282.3 59.051 282.302 59.074 282.302 59.1H276.302C276.302 60.4403 276.78 61.629 277.474 62.6204L282.39 59.1796ZM282.302 59.1C282.302 59.0503 282.308 59.0614 282.293 59.114C282.276 59.1706 282.244 59.243 282.193 59.3137L277.311 55.8263C276.591 56.8343 276.302 57.9796 276.302 59.1H282.302ZM282.152 59.37C282.21 59.2929 282.256 59.2602 282.321 59.2314L279.884 53.7486C278.869 54.1998 278.014 54.8871 277.352 55.77L282.152 59.37ZM282.155 59.299C282.228 59.2718 282.287 59.2517 282.334 59.2371C282.382 59.2224 282.413 59.2144 282.429 59.2107C282.446 59.2068 282.441 59.2087 282.418 59.2117C282.396 59.2146 282.345 59.22 282.272 59.22V53.22C281.445 53.22 280.662 53.4512 280.049 53.681L282.155 59.299ZM282.272 59.22C282.264 59.22 282.186 59.2185 282.066 59.1785C281.94 59.1367 281.813 59.0671 281.702 58.9747L285.543 54.3653C284.563 53.5488 283.401 53.22 282.272 53.22V59.22ZM282.134 59.2747C282.125 59.27 282.188 59.3054 282.322 59.4227C282.452 59.5369 282.622 59.7034 282.832 59.9369L287.292 55.9231C286.661 55.222 285.932 54.5346 285.111 54.0653L282.134 59.2747ZM282.878 59.9871C287.427 64.8151 293.452 67.14 300.632 67.14V61.14C294.852 61.14 290.498 59.3249 287.246 55.8729L282.878 59.9871ZM300.632 67.14C304.065 67.14 307.145 66.5508 309.663 65.1347L306.721 59.9053C305.399 60.6492 303.439 61.14 300.632 61.14V67.14ZM309.663 65.1347C312.36 63.6176 314.072 61.2033 314.072 58.02H308.072C308.072 58.6767 307.864 59.2624 306.721 59.9053L309.663 65.1347ZM314.072 58.02C314.072 56.046 313.497 54.1526 312.1 52.6486L307.704 56.7314C307.867 56.9074 308.072 57.234 308.072 58.02H314.072ZM312.245 52.8159C311.05 51.3225 309.228 50.2713 307.236 49.4746L305.008 55.0454C306.616 55.6887 307.314 56.2575 307.56 56.5641L312.245 52.8159ZM307.349 49.5225C305.475 48.6824 302.484 47.5653 298.456 46.1825L296.508 51.8575C300.52 53.2347 303.289 54.2776 304.895 54.9975L307.349 49.5225ZM298.444 46.1784C294.618 44.8833 291.736 43.6862 289.729 42.6009L286.876 47.8791C289.308 49.1938 292.547 50.5167 296.52 51.8616L298.444 46.1784ZM289.729 42.6009C287.77 41.5419 286.524 40.4605 285.787 39.4371L280.918 42.9429C282.341 44.9195 284.395 46.5381 286.876 47.8791L289.729 42.6009ZM285.819 39.4824C285.142 38.5051 284.732 37.2363 284.732 35.52H278.732C278.732 38.2437 279.402 40.7549 280.886 42.8976L285.819 39.4824ZM284.732 35.52C284.732 33.078 285.705 31.181 287.952 29.6077L284.512 24.6923C280.759 27.3189 278.732 31.002 278.732 35.52H284.732ZM287.93 29.6235C290.34 27.9695 293.736 27 298.382 27V21C292.948 21 288.244 22.1305 284.535 24.6765L287.93 29.6235ZM298.382 27C301.739 27 304.795 27.5939 307.582 28.7508L309.882 23.2092C306.309 21.7261 302.465 21 298.382 21V27ZM307.627 28.769C310.428 29.879 312.322 31.2967 313.532 32.91L318.332 29.31C316.302 26.6033 313.396 24.601 309.837 23.191L307.627 28.769ZM313.506 32.8745C313.621 33.0334 313.66 33.1239 313.669 33.1455C313.675 33.1613 313.652 33.1073 313.652 33H319.652C319.652 31.5734 319.079 30.3368 318.358 29.3455L313.506 32.8745ZM313.652 33C313.652 32.9553 313.659 32.8806 313.686 32.789C313.713 32.6964 313.753 32.6148 313.796 32.5509C313.88 32.4252 313.919 32.4455 313.741 32.5453L316.683 37.7747C318.338 36.8436 319.652 35.2424 319.652 33H313.652ZM313.669 32.5875C313.558 32.654 313.485 32.6809 313.45 32.6915C313.432 32.6969 313.422 32.6988 313.417 32.6994C313.415 32.6998 313.413 32.6999 313.413 32.7C313.412 32.7 313.412 32.7 313.412 32.7C313.412 32.7 313.412 32.7 313.412 32.7C313.412 32.7 313.412 32.7 313.412 32.7C313.412 32.7 313.412 32.7 313.412 32.7C313.412 32.7 313.412 32.7 313.412 32.7C313.412 32.7 313.412 32.7 313.412 32.7V38.7C314.641 38.7 315.768 38.3251 316.756 37.7325L313.669 32.5875ZM313.412 32.7C313.374 32.7 313.138 32.7134 312.653 32.2287L308.411 36.4713C309.726 37.7866 311.41 38.7 313.412 38.7V32.7ZM312.653 32.2287C310.83 30.4049 308.774 29.0183 306.485 28.1323L304.319 33.7277C305.75 34.2817 307.115 35.1751 308.411 36.4713L312.653 32.2287ZM306.562 28.1634C304.213 27.1784 301.413 26.76 298.292 26.76V32.76C300.931 32.76 302.871 33.1216 304.242 33.6966L306.562 28.1634ZM298.292 26.76C294.869 26.76 291.801 27.2954 289.445 28.7256L292.559 33.8544C293.563 33.2446 295.355 32.76 298.292 32.76V26.76ZM289.445 28.7256C286.931 30.2522 285.482 32.6316 285.482 35.61H291.482C291.482 34.8684 291.713 34.3678 292.559 33.8544L289.445 28.7256ZM285.482 35.61C285.482 37.4641 285.93 39.2878 287.113 40.7935L291.831 37.0865C291.694 36.9122 291.482 36.5159 291.482 35.61H285.482ZM287.268 40.9748C288.378 42.1772 289.901 43.1009 291.594 43.8459L294.01 38.3541C292.704 37.7791 292.007 37.2628 291.677 36.9052L287.268 40.9748ZM291.725 43.9C293.363 44.5299 296.127 45.4805 299.967 46.7405L301.837 41.0395C297.997 39.7795 295.361 38.8701 293.879 38.3L291.725 43.9ZM299.953 46.736C304.198 48.1509 307.321 49.4599 309.418 50.6429L312.366 45.4171C309.783 43.9601 306.246 42.5091 301.851 41.0439L299.953 46.736ZM309.498 50.6862C311.637 51.8094 312.869 52.9202 313.511 53.9017L318.533 50.6183C317.135 48.4798 314.947 46.7706 312.287 45.3738L309.498 50.6862ZM313.556 53.9676C314.223 54.9319 314.642 56.2249 314.642 58.02H320.642C320.642 55.2551 319.981 52.7081 318.489 50.5524L313.556 53.9676ZM314.642 58.02C314.642 60.5488 313.61 62.5319 311.186 64.1783L314.558 69.1417C318.494 66.4681 320.642 62.6912 320.642 58.02H314.642ZM311.164 64.1934C308.687 65.9086 305.259 66.9 300.632 66.9V72.9C306.085 72.9 310.817 71.7314 314.58 69.1266L311.164 64.1934ZM328.856 69L326.534 70.8997L326.629 71.0155L326.735 71.1213L328.856 69ZM328.856 1.68L326.636 -0.338017L326.631 -0.33247L326.626 -0.326898L328.856 1.68ZM333.716 1.68L331.496 3.69801L331.544 3.75084L331.595 3.80132L333.716 1.68ZM334.616 32.91H331.616V41.8614L337.01 34.7178L334.616 32.91ZM342.626 26.25L341.346 23.5367L341.336 23.5414L341.326 23.5462L342.626 26.25ZM366.116 28.77L363.955 30.8501L363.965 30.8606L363.975 30.871L366.116 28.77ZM369.896 69L372.018 71.1213L372.068 71.0708L372.116 71.018L369.896 69ZM365.036 69L362.714 70.8997L362.759 70.9544L362.806 71.0069L365.036 69ZM339.386 34.35L337.305 32.189L337.295 32.1988L337.285 32.2086L339.386 34.35ZM333.716 68.91L331.496 66.892L331.444 66.9498L331.394 67.0103L333.716 68.91ZM331.286 66.9C331.069 66.9 330.973 66.8681 330.956 66.8618C330.947 66.8585 330.95 66.8589 330.96 66.865C330.969 66.8712 330.976 66.8771 330.978 66.8787L326.735 71.1213C328.008 72.3949 329.643 72.9 331.286 72.9V66.9ZM331.178 67.1003C331.178 67.0998 331.177 67.0984 331.175 67.0953C331.173 67.0922 331.169 67.0865 331.164 67.0776C331.155 67.0601 331.14 67.0256 331.122 66.968C331.087 66.8497 331.046 66.6379 331.046 66.3H325.046C325.046 67.8986 325.428 69.547 326.534 70.8997L331.178 67.1003ZM331.046 66.3V4.29H325.046V66.3H331.046ZM331.046 4.29C331.046 3.58682 331.213 3.54541 331.086 3.68689L326.626 -0.326898C325.419 1.01459 325.046 2.71318 325.046 4.29H331.046ZM331.076 3.69801C331.083 3.69078 331.08 3.69441 331.07 3.70211C331.058 3.70993 331.049 3.7145 331.046 3.71577C331.037 3.71942 331.101 3.68999 331.286 3.68999V-2.31001C329.555 -2.31001 327.889 -1.71607 326.636 -0.338017L331.076 3.69801ZM331.286 3.68999C331.472 3.68999 331.536 3.71942 331.527 3.71577C331.524 3.7145 331.514 3.70993 331.503 3.70211C331.492 3.69441 331.49 3.69078 331.496 3.69801L335.936 -0.338017C334.683 -1.71607 333.018 -2.31001 331.286 -2.31001V3.68999ZM331.595 3.80132C331.546 3.75278 331.541 3.71885 331.555 3.76047C331.574 3.81597 331.616 3.97649 331.616 4.29H337.616C337.616 2.63594 337.172 0.893232 335.838 -0.441324L331.595 3.80132ZM331.616 4.29V32.91H337.616V4.29H331.616ZM337.01 34.7178C338.961 32.1342 341.265 30.2333 343.926 28.9538L341.326 23.5462C337.748 25.2667 334.711 27.8058 332.222 31.1022L337.01 34.7178ZM343.906 28.9633C346.663 27.663 349.673 27 352.976 27V21C348.84 21 344.95 21.837 341.346 23.5367L343.906 28.9633ZM352.976 27C358.111 27 361.613 28.4165 363.955 30.8501L368.278 26.6899C364.5 22.7635 359.242 21 352.976 21V27ZM363.975 30.871C366.381 33.3232 367.796 37.0259 367.796 42.45H373.796C373.796 35.9941 372.092 30.5768 368.258 26.669L363.975 30.871ZM367.796 42.45V66.3H373.796V42.45H367.796ZM367.796 66.3C367.796 66.6105 367.755 66.7917 367.725 66.8813C367.699 66.9608 367.678 66.9803 367.676 66.982L372.116 71.018C373.346 69.6653 373.796 67.9718 373.796 66.3H367.796ZM367.775 66.8787C367.776 66.8771 367.783 66.8712 367.793 66.865C367.802 66.8589 367.806 66.8585 367.797 66.8618C367.78 66.8681 367.684 66.9 367.466 66.9V72.9C369.11 72.9 370.744 72.3949 372.018 71.1213L367.775 66.8787ZM367.466 66.9C367.196 66.9 367.09 66.8617 367.091 66.8618C367.093 66.8627 367.118 66.8725 367.156 66.8976C367.194 66.9232 367.233 66.9561 367.266 66.9931L362.806 71.0069C364.09 72.433 365.837 72.9 367.466 72.9V66.9ZM367.358 67.1003C367.358 67.0998 367.357 67.0984 367.355 67.0953C367.353 67.0922 367.349 67.0865 367.344 67.0776C367.335 67.0601 367.32 67.0256 367.302 66.968C367.267 66.8497 367.226 66.6379 367.226 66.3H361.226C361.226 67.8986 361.608 69.547 362.714 70.8997L367.358 67.1003ZM367.226 66.3V42.45H361.226V66.3H367.226ZM367.226 42.45C367.226 37.7695 366.125 33.7013 363.393 30.806C360.63 27.8781 356.695 26.67 352.166 26.67V32.67C355.678 32.67 357.772 33.5919 359.029 34.924C360.317 36.2887 361.226 38.6105 361.226 42.45H367.226ZM352.166 26.67C346.255 26.67 341.2 28.4382 337.305 32.189L341.467 36.511C344.052 34.0218 347.518 32.67 352.166 32.67V26.67ZM337.285 32.2086C333.438 35.9828 331.616 40.9428 331.616 46.77H337.616C337.616 42.2772 338.974 38.9572 341.487 36.4914L337.285 32.2086ZM331.616 46.77V66.3H337.616V46.77H331.616ZM331.616 66.3C331.616 66.5636 331.58 66.7134 331.555 66.7845C331.534 66.8471 331.514 66.8729 331.496 66.892L335.936 70.928C337.139 69.6045 337.616 67.9608 337.616 66.3H331.616ZM331.394 67.0103C331.416 66.9834 331.448 66.9524 331.487 66.9239C331.525 66.8957 331.557 66.8804 331.572 66.8742C331.6 66.8628 331.526 66.9 331.286 66.9V72.9C333.005 72.9 334.782 72.3455 336.038 70.8097L331.394 67.0103Z" fill="#2D59CA"/>
</svg>
